<svg id="Layer_1" data-name="Layer 1" xmlns="http://www.w3.org/2000/svg" viewBox="0 0 803.72 607.81"><defs><style>.cls-1{fill:#ff1010;}.cls-2{fill:#fff;}</style></defs><title>vocr</title><path d="M869.74,208.1l-257,607.8H411.28l-257-607.8H374.81l145,355.13L668.3,208.1Z" transform="translate(-110.14 -208.1)"/><rect class="cls-1" y="156.16" width="803.72" height="295.5" rx="69" ry="69"/><path class="cls-2" d="M243.07,602.41a100.74,100.74,0,0,1-39.65-37.08Q189,541.66,189,512t14.4-53.33a100.74,100.74,0,0,1,39.65-37.08Q268.3,408.2,300,408.19t56.9,13.4a100.78,100.78,0,0,1,39.64,37.08q14.4,23.67,14.4,53.33t-14.4,53.33a100.78,100.78,0,0,1-39.64,37.08q-25.25,13.4-56.9,13.4T243.07,602.41Zm84.27-40.5a51.22,51.22,0,0,0,19.39-20.11q7.13-13,7.13-29.8t-7.13-29.8a51.35,51.35,0,0,0-19.39-20.11,56.14,56.14,0,0,0-54.76,0,51.35,51.35,0,0,0-19.39,20.11q-7.12,13-7.13,29.8t7.13,29.8a51.22,51.22,0,0,0,19.39,20.11,56.14,56.14,0,0,0,54.76,0Z" transform="translate(-110.14 -208.1)"/><path class="cls-2" d="M483.77,602.55a99.17,99.17,0,0,1-39.22-36.93Q430.29,542,430.29,512t14.26-53.62a99.24,99.24,0,0,1,39.22-36.93q24.94-13.26,56.32-13.26,27.38,0,49.34,9.7a94.81,94.81,0,0,1,36.5,27.95L590,478.35Q570.61,455,542.94,455q-16.25,0-28.94,7.13a49.44,49.44,0,0,0-19.68,20.11q-7,13-7,29.8t7,29.8A49.31,49.31,0,0,0,514,561.91Q526.68,569,542.94,569q27.66,0,47.06-23.39l35.93,32.51a94.81,94.81,0,0,1-36.5,28q-22,9.69-49.34,9.7Q508.71,615.81,483.77,602.55Z" transform="translate(-110.14 -208.1)"/><path class="cls-2" d="M738.3,558.77H707.5v53.05H651V412.18h91.26q27.09,0,47.06,9t30.8,25.66Q831,463.53,831,486.05q0,21.68-10.12,37.79t-29,25.24L835,611.82H774.52Zm26.81-94.4q-8.85-7.69-26.24-7.7H707.5v58.47h31.37q17.39,0,26.24-7.56T774,486.05Q774,472.07,765.11,464.37Z" transform="translate(-110.14 -208.1)"/></svg>