<svg xmlns="http://www.w3.org/2000/svg" width="64" height="32" fill="none" viewBox="0 0 64 32"><path fill="#2c74d6" d="M28 32c8.837 0 16-7.163 16-16S36.837 0 28 0 12 7.163 12 16s7.163 16 16 16z"></path><path fill="#fff" d="M31.098 16.298a3.18 3.18 0 00-6.361 0 2.955 2.955 0 002.267 3.02c.242.063.49.099.74.107v.005c-.5 2.09-1.369 4.075-2.564 5.86a.224.224 0 00.19.345h2.515a.227.227 0 00.184-.094 17.354 17.354 0 003.029-9.243zM27.918 11.584a2.858 2.858 0 100-5.717 2.858 2.858 0 000 5.717z"></path></svg>